<?xml version="1.0" encoding="utf-8"?>
<!-- Generator: Adobe Illustrator 26.0.2, SVG Export Plug-In . SVG Version: 6.00 Build 0)  -->
<svg version="1.1" id="Layer_1" xmlns="http://www.w3.org/2000/svg" xmlns:xlink="http://www.w3.org/1999/xlink" x="0px" y="0px"
	 viewBox="0 0 645 192.5" style="enable-background:new 0 0 645 192.5;" xml:space="preserve">
<style type="text/css">
	.st0{fill-rule:evenodd;clip-rule:evenodd;fill:#FD6A23;}
	.st1{fill:none;}
	.st2{fill-rule:evenodd;clip-rule:evenodd;fill:#3268AD;}
	.st3{fill-rule:evenodd;clip-rule:evenodd;fill:#057DC1;}
	.st4{fill-rule:evenodd;clip-rule:evenodd;fill:#FD1415;}
	.st5{fill-rule:evenodd;clip-rule:evenodd;fill:#4A7922;}
	.st6{fill:#4E4F50;}
</style>
<g id="Layer_2_00000075869850341040656730000010106815090940684720_">
	<g id="Layer_1-2">
		<path class="st0" d="M16.4,29.2c-0.2,0-0.4,0.2-0.4,0.4c0,0,0,0,0,0v83.9c0,0.2,0.2,0.4,0.4,0.4c0,0,0,0,0,0h10.4
			c0.2,0,0.4-0.2,0.4-0.4c0,0,0,0,0,0V29.6c0-0.2-0.2-0.4-0.4-0.4c0,0,0,0,0,0H16.4z"/>
		<path class="st1" d="M16.4,29.2c-0.2,0-0.4,0.2-0.4,0.4c0,0,0,0,0,0v83.9c0,0.2,0.2,0.4,0.4,0.4c0,0,0,0,0,0h10.4
			c0.2,0,0.4-0.2,0.4-0.4c0,0,0,0,0,0V29.6c0-0.2-0.2-0.4-0.4-0.4c0,0,0,0,0,0H16.4z"/>
		<path class="st2" d="M47.7,50.6c-0.2,0-0.4,0.2-0.4,0.4v62.5c0,0.2,0.2,0.4,0.4,0.4l0,0h10.5c0.2,0,0.4-0.2,0.4-0.4c0,0,0,0,0,0
			V51.1c0-0.2-0.2-0.4-0.4-0.4L47.7,50.6z"/>
		<path class="st3" d="M47.7,50.6c-0.2,0-0.4,0.2-0.4,0.4v62.5c0,0.2,0.2,0.4,0.4,0.4l0,0h10.5c0.2,0,0.4-0.2,0.4-0.4c0,0,0,0,0,0
			V51.1c0-0.2-0.2-0.4-0.4-0.4L47.7,50.6z"/>
		<path class="st4" d="M111,39.9c-0.2,0-0.4,0.2-0.4,0.4v73.2c0,0.2,0.2,0.4,0.4,0.4c0,0,0,0,0,0h10.5c0.2,0,0.4-0.2,0.4-0.4l0,0
			V40.3c0-0.2-0.2-0.4-0.4-0.4c0,0,0,0,0,0H111z"/>
		<path class="st1" d="M111,39.9c-0.2,0-0.4,0.2-0.4,0.4v73.2c0,0.2,0.2,0.4,0.4,0.4c0,0,0,0,0,0h10.5c0.2,0,0.4-0.2,0.4-0.4l0,0
			V40.3c0-0.2-0.2-0.4-0.4-0.4c0,0,0,0,0,0H111z"/>
		<path class="st5" d="M79.4,18.4c-0.2,0-0.4,0.2-0.4,0.4c0,0,0,0,0,0v94.6c0,0.2,0.2,0.4,0.4,0.4c0,0,0,0,0,0h10.5
			c0.2,0,0.4-0.2,0.4-0.4c0,0,0,0,0,0V18.9c0-0.2-0.2-0.4-0.4-0.4c0,0,0,0,0,0H79.4z"/>
		<path class="st1" d="M79.4,18.4c-0.2,0-0.4,0.2-0.4,0.4c0,0,0,0,0,0v94.6c0,0.2,0.2,0.4,0.4,0.4c0,0,0,0,0,0h10.5
			c0.2,0,0.4-0.2,0.4-0.4c0,0,0,0,0,0V18.9c0-0.2-0.2-0.4-0.4-0.4c0,0,0,0,0,0H79.4z"/>
		<path class="st6" d="M176.4,76.9c-0.1,1.2,0.3,2.4,0.9,3.4c0.6,0.9,1.4,1.7,2.4,2.2c1.1,0.6,2.2,1,3.4,1.3c1.3,0.4,2.7,0.7,4,1
			c1.9,0.4,3.7,0.9,5.4,1.4c1.7,0.5,3.3,1.3,4.7,2.3c1.5,1.1,2.7,2.5,3.5,4.2c1,2.1,1.4,4.5,1.4,6.8c0,2.3-0.5,4.7-1.5,6.8
			c-1,2-2.4,3.6-4.2,4.9c-2,1.4-4.1,2.4-6.5,3c-2.7,0.7-5.5,1-8.3,1c-1.7,0-3.3-0.1-5-0.3c-1.3-0.2-2.7-0.4-4-0.8
			c-1-0.3-2-0.6-2.9-0.9c-0.7-0.3-1.4-0.6-2-0.9v-6.8c2,0.8,4.1,1.5,6.2,2c2.2,0.5,4.5,0.8,6.8,0.8c1.8,0,3.5-0.2,5.3-0.5
			c1.4-0.3,2.8-0.8,4-1.6c1.1-0.6,2-1.5,2.6-2.6c0.6-1.1,0.9-2.4,0.9-3.6c0-1.2-0.2-2.4-0.8-3.5c-0.6-0.9-1.3-1.7-2.2-2.3
			c-1-0.6-2.1-1.2-3.2-1.5c-1.2-0.4-2.5-0.7-3.9-1.1c-1.8-0.4-3.6-0.8-5.4-1.4c-1.8-0.5-3.5-1.2-5-2.2c-1.5-1-2.8-2.3-3.6-3.9
			c-1-2-1.5-4.1-1.4-6.3c-0.1-2.4,0.4-4.7,1.4-6.9c0.9-1.9,2.2-3.5,3.9-4.8c1.7-1.3,3.6-2.3,5.7-2.9c2.2-0.7,4.5-1,6.9-1
			c2.6,0,5.2,0.3,7.8,0.8c2.2,0.5,4.4,1.1,6.5,2v7c-2.1-0.8-4.2-1.5-6.3-2c-2.1-0.5-4.3-0.8-6.6-0.8c-1.6,0-3.3,0.2-4.9,0.6
			c-1.2,0.3-2.3,0.9-3.3,1.6c-0.8,0.6-1.5,1.5-1.9,2.4C176.5,74.7,176.3,75.7,176.4,76.9L176.4,76.9z"/>
		<path class="st6" d="M240.4,108c2.5,0,5-0.2,7.4-0.7c2.3-0.4,4.5-1.1,6.7-1.9v6.8c-2.1,1-4.4,1.7-6.7,2.1
			c-2.8,0.5-5.7,0.8-8.5,0.8c-3.4,0-6.9-0.4-10.2-1.4c-3-0.9-5.8-2.4-8.2-4.5c-2.4-2.2-4.3-4.9-5.4-8c-1.4-3.8-2.1-7.9-2-12
			c-0.1-4.1,0.6-8.1,1.9-12c1.1-3.1,2.8-6,5.1-8.5c2-2.2,4.5-3.9,7.3-5.1c2.7-1.1,5.7-1.7,8.6-1.7c2.7,0,5.4,0.5,7.9,1.4
			c2.5,0.9,4.6,2.5,6.4,4.4c2,2.3,3.4,5,4.3,7.8c1.1,3.7,1.6,7.6,1.6,11.5v1.1c0,0.3,0,1-0.1,2h-34.8c-0.1,2.8,0.4,5.6,1.5,8.2
			c0.9,2.1,2.3,4,4,5.5c1.7,1.4,3.7,2.4,5.9,3C235.5,107.6,237.9,108,240.4,108L240.4,108z M236,69.2L236,69.2
			c-1.8,0-3.6,0.4-5.3,1.1c-1.6,0.7-3.1,1.7-4.3,3c-1.2,1.3-2.2,2.8-2.9,4.5c-0.8,1.7-1.2,3.6-1.4,5.5h25.8c0-1.9-0.2-3.7-0.8-5.6
			c-0.5-1.6-1.2-3.1-2.3-4.5c-1-1.3-2.3-2.3-3.7-3C239.5,69.5,237.8,69.1,236,69.2z"/>
		<path class="st6" d="M280.5,70.4h0.2c0.9-1.2,1.9-2.3,3-3.3c1.1-1,2.4-1.9,3.7-2.7c1.4-0.8,3-1.4,4.5-1.8c3.9-1,8-0.8,11.9,0.3
			c2,0.6,3.8,1.7,5.2,3.1c1.6,1.6,2.8,3.5,3.5,5.6c0.9,2.7,1.4,5.5,1.3,8.4v33.7h-8.2V81.4c0-4.3-0.8-7.5-2.5-9.4
			c-1.7-1.9-4.1-2.9-7.4-2.9c-2.9,0-5.7,0.8-8.2,2.4c-2.7,1.6-5.1,3.9-6.8,6.5v35.8h-8.2V63.4h6.4L280.5,70.4L280.5,70.4z"/>
		<path class="st6" d="M337.8,76.9c-0.1,1.2,0.3,2.4,0.9,3.4c0.6,0.9,1.4,1.7,2.4,2.2c1.1,0.6,2.2,1,3.4,1.3c1.3,0.4,2.6,0.7,4,1
			c1.9,0.4,3.7,0.9,5.4,1.4c1.7,0.5,3.3,1.3,4.7,2.2c1.5,1.1,2.7,2.5,3.5,4.2c1,2.1,1.4,4.5,1.3,6.8c0,2.3-0.5,4.7-1.5,6.8
			c-1,2-2.4,3.6-4.2,4.9c-2,1.4-4.1,2.4-6.5,3c-2.7,0.7-5.5,1-8.3,1c-1.7,0-3.3-0.1-5-0.3c-1.3-0.2-2.7-0.4-4-0.8
			c-1-0.3-2-0.6-3-0.9c-0.7-0.3-1.4-0.6-2-0.9v-6.8c2,0.8,4.1,1.5,6.2,2c2.2,0.5,4.5,0.8,6.8,0.8c1.8,0,3.5-0.2,5.3-0.5
			c1.4-0.3,2.8-0.8,4-1.6c1.1-0.6,2-1.5,2.6-2.6c0.6-1.1,0.9-2.4,0.9-3.6c0-1.2-0.2-2.4-0.8-3.5c-0.6-0.9-1.3-1.7-2.2-2.3
			c-1-0.6-2.1-1.1-3.2-1.5c-1.2-0.4-2.5-0.7-3.9-1.1c-1.8-0.4-3.6-0.9-5.4-1.4c-1.8-0.5-3.5-1.2-5-2.2c-1.5-1-2.8-2.3-3.6-3.9
			c-1-2-1.5-4.1-1.4-6.3c-0.1-2.4,0.4-4.7,1.4-6.9c0.9-1.9,2.2-3.5,3.9-4.8c1.7-1.3,3.6-2.3,5.7-2.9c2.2-0.7,4.5-1,6.8-1
			c2.6,0,5.2,0.3,7.8,0.8c2.2,0.5,4.4,1.1,6.5,2v7c-2.1-0.8-4.2-1.5-6.3-2c-2.1-0.5-4.3-0.8-6.5-0.8c-1.6,0-3.3,0.2-4.9,0.6
			c-1.2,0.3-2.3,0.9-3.3,1.6c-0.8,0.6-1.5,1.5-1.9,2.4c-0.4,1-0.6,2-0.6,3.1L337.8,76.9z"/>
		<path class="st6" d="M401.8,108c2.5,0,5-0.2,7.5-0.7c2.3-0.5,4.5-1.1,6.7-1.9v6.8c-2.1,1-4.4,1.7-6.7,2.1
			c-2.8,0.5-5.7,0.8-8.5,0.8c-3.4,0-6.8-0.4-10.1-1.4c-3-0.8-5.9-2.4-8.2-4.5c-2.4-2.2-4.3-4.9-5.4-8c-1.4-3.8-2.1-7.9-2-12
			c-0.1-4.1,0.6-8.1,1.9-12c1.1-3.1,2.9-6,5.1-8.4c2-2.2,4.5-3.9,7.3-5.1c2.7-1.1,5.7-1.7,8.6-1.7c2.7,0,5.4,0.5,7.9,1.4
			c2.5,0.9,4.6,2.5,6.4,4.4c1.9,2.3,3.4,4.9,4.3,7.8c1.1,3.7,1.6,7.6,1.5,11.5v1.1c0,0.3,0,1-0.1,2h-34.8c-0.1,2.8,0.4,5.6,1.5,8.2
			c0.9,2.1,2.3,4,4,5.5c1.7,1.4,3.7,2.4,5.9,3C396.9,107.6,399.4,108,401.8,108L401.8,108z M397.5,69.2L397.5,69.2
			c-1.8,0-3.6,0.4-5.3,1.1c-1.6,0.7-3.1,1.7-4.3,3c-1.3,1.3-2.3,2.8-3,4.5c-0.8,1.7-1.2,3.6-1.4,5.5h25.8c0-1.9-0.2-3.7-0.8-5.6
			c-0.5-1.6-1.2-3.1-2.3-4.5c-1-1.3-2.3-2.3-3.7-3C401,69.5,399.2,69.1,397.5,69.2L397.5,69.2z"/>
		<path class="st6" d="M431.1,89.3c-0.1-3.1,0.3-6.3,1-9.3c0.6-2.5,1.5-4.8,2.7-7.1c1-1.9,2.4-3.6,4-5.1c1.4-1.3,3-2.4,4.7-3.3
			c1.6-0.8,3.3-1.4,5-1.8c1.6-0.4,3.2-0.5,4.8-0.6c2.7-0.1,5.5,0.5,8,1.5c2.3,1.1,4.4,2.6,6.1,4.5h0.2V37h8.2v76.8h-6.2l-1.7-5.6
			h-0.2c-0.7,0.9-1.4,1.7-2.2,2.5c-0.9,0.9-1.9,1.6-3,2.2c-1.3,0.7-2.6,1.3-4,1.6c-1.7,0.4-3.5,0.6-5.2,0.6c-2.8,0-5.5-0.5-8.1-1.4
			c-2.7-0.9-5.1-2.5-7.1-4.5c-2.2-2.3-3.9-5-5-8C431.6,97.4,431,93.3,431.1,89.3L431.1,89.3z M439.7,89.2L439.7,89.2
			c0,2.7,0.3,5.3,1,7.9c0.6,2.2,1.5,4.2,2.8,6c1.2,1.6,2.8,2.9,4.6,3.8c1.9,0.9,4.1,1.4,6.2,1.3c1.6,0,3.2-0.2,4.7-0.7
			c2.5-0.8,4.8-2.2,6.7-4c0.7-0.7,1.3-1.4,1.9-2.2V74.9c-1.7-1.7-3.7-3.1-5.9-4.2c-2.3-1-4.7-1.6-7.2-1.6c-1.7,0-3.3,0.3-4.9,0.9
			c-1.8,0.7-3.5,1.7-4.8,3.2c-1.6,1.8-2.9,3.9-3.6,6.1C440.1,82.5,439.6,85.8,439.7,89.2L439.7,89.2z"/>
		<path class="st6" d="M523.8,108.3h-0.2c-0.8,0.9-1.6,1.8-2.6,2.5c-1.1,0.9-2.3,1.6-3.6,2.2c-1.4,0.7-2.9,1.2-4.4,1.6
			c-1.7,0.4-3.4,0.6-5.1,0.6c-2.3,0-4.6-0.3-6.7-1.1c-4-1.3-7.2-4.4-8.7-8.3c-0.8-2.2-1.3-4.5-1.2-6.8c0-2.3,0.4-4.6,1.4-6.7
			c0.9-1.9,2.2-3.6,3.8-5c1.7-1.4,3.7-2.5,5.9-3.2c2.4-0.8,5-1.2,7.6-1.1c2.4,0,4.9,0.3,7.3,0.7c2,0.4,4,0.9,5.9,1.6h0.2v-3.5
			c0-1.2-0.1-2.4-0.3-3.7c-0.2-1-0.5-1.9-0.9-2.8c-1-1.8-2.6-3.3-4.4-4.2c-2.5-1.2-5.4-1.8-8.2-1.7c-2.4,0-4.8,0.2-7.2,0.7
			c-2.3,0.5-4.5,1.2-6.7,2v-6.9c1-0.5,2-0.9,3-1.2c1.2-0.4,2.4-0.7,3.6-1c1.3-0.3,2.7-0.5,4-0.6c1.4-0.1,2.8-0.2,4.2-0.2
			c5.1,0,9.3,0.9,12.5,2.7c3,1.6,5.5,4.1,7,7.2c0.5,1.2,0.9,2.4,1.1,3.7c0.2,1.5,0.4,3,0.3,4.5v33.6h-6.9L523.8,108.3L523.8,108.3z
			 M523.4,91.7L523.4,91.7c-1.5-0.4-3.3-0.8-5.4-1.2c-2.3-0.4-4.6-0.6-6.9-0.6c-3.5,0-6.2,0.8-8.2,2.2s-2.9,3.8-2.9,6.8
			c0,1.4,0.2,2.8,0.7,4.1c0.4,1.1,1.1,2.1,2,2.9c0.9,0.8,1.9,1.4,3.1,1.7c1.2,0.4,2.5,0.6,3.8,0.6c1.7,0,3.3-0.2,4.9-0.8
			c1.4-0.5,2.7-1.1,4-1.8c1.1-0.6,2.1-1.3,3-2.1c0.8-0.7,1.4-1.2,1.8-1.6L523.4,91.7L523.4,91.7z"/>
		<path class="st6" d="M576.1,113.9c-1.1,0.4-2.1,0.6-3.2,0.8c-1.7,0.3-3.5,0.4-5.2,0.4c-2.3,0-4.7-0.3-6.9-1
			c-1.8-0.6-3.4-1.5-4.8-2.8c-1.3-1.2-2.3-2.7-2.9-4.4c-0.7-1.9-1-3.8-1-5.8V70.5h-9.8v-7h9.7V49.6h8.2v13.8h15.1v7h-15.1v29.4
			c0,1.1,0.2,2.2,0.5,3.2c0.3,1,0.9,1.9,1.6,2.6c0.8,0.8,1.7,1.3,2.8,1.7c1.3,0.4,2.7,0.6,4.1,0.6c1.2,0,2.3-0.1,3.5-0.3
			c1.1-0.2,2.3-0.4,3.4-0.7V113.9z"/>
		<path class="st6" d="M618.8,108.3h-0.2c-0.8,0.9-1.6,1.8-2.5,2.5c-1.1,0.9-2.3,1.6-3.5,2.2c-3,1.4-6.2,2.2-9.5,2.2
			c-2.3,0-4.6-0.3-6.7-1.1c-2-0.7-3.7-1.8-5.2-3.2c-1.5-1.4-2.7-3.2-3.4-5.1c-0.8-2.2-1.3-4.5-1.2-6.8c0-2.3,0.4-4.6,1.3-6.7
			c0.9-1.9,2.2-3.6,3.8-5c1.7-1.4,3.7-2.5,5.9-3.2c2.4-0.8,5-1.2,7.6-1.2c2.4,0,4.9,0.3,7.3,0.7c2,0.4,4,0.9,5.9,1.6h0.2v-3.5
			c0-1.2-0.1-2.4-0.3-3.7c-0.2-1-0.5-1.9-0.9-2.8c-1-1.8-2.6-3.3-4.4-4.2c-2.5-1.2-5.4-1.8-8.2-1.7c-2.4,0-4.8,0.2-7.2,0.7
			c-2.3,0.5-4.5,1.2-6.7,2v-6.9c1-0.5,2-0.9,3-1.2c1.2-0.4,2.4-0.7,3.6-1c1.3-0.3,2.7-0.5,4-0.6c1.4-0.1,2.8-0.2,4.2-0.2
			c5.1,0,9.3,0.9,12.5,2.7c3,1.6,5.5,4.1,7,7.2c0.5,1.2,0.9,2.4,1.1,3.7c0.2,1.5,0.4,3,0.3,4.5v33.7h-6.9L618.8,108.3L618.8,108.3z
			 M618.4,91.7L618.4,91.7c-1.5-0.4-3.3-0.8-5.4-1.2c-2.3-0.4-4.6-0.6-6.9-0.6c-3.5,0-6.2,0.8-8.2,2.2s-3,3.8-3,6.8
			c0,1.4,0.2,2.8,0.7,4.1c0.4,1.1,1.1,2.1,2,2.9c0.9,0.8,1.9,1.4,3.1,1.7c1.2,0.4,2.5,0.6,3.8,0.6c1.7,0,3.3-0.2,4.9-0.8
			c1.4-0.5,2.7-1.1,4-1.8c1.1-0.6,2.1-1.3,3-2.1c0.8-0.7,1.4-1.2,1.8-1.6V91.7L618.4,91.7z"/>
		<polygon class="st6" points="222.7,151.4 222.7,149 239.1,149 225.6,171.1 238.7,171.1 238.7,173.7 221,173.7 234.5,151.5 
			222.8,151.5 222.7,151.4 		"/>
		<polygon class="st6" points="275.1,151.4 275.1,149 262.3,149 262.3,173.6 275.1,173.6 275.1,171.2 265,171.2 265,161.4 
			274.8,161.4 274.8,158.9 265,158.9 265,151.4 275.1,151.4 		"/>
		<polygon class="st6" points="301.2,173.7 298.5,173.7 298.5,147.9 317.8,168.1 317.8,149.1 320.4,149.1 320.4,174.6 301.2,155.4 
			301.2,173.7 		"/>
		<polygon class="st6" points="343.8,149.1 353.8,175.1 363.8,149.1 360.9,149.1 353.8,167.5 346.8,149.1 343.8,149.1 		"/>
		<polygon class="st6" points="387.2,173.7 390,173.7 390,149.1 387.2,149.1 387.2,173.7 		"/>
		<path class="st6" d="M432.8,173.6h3l-11.1-25.9l-11.5,25.9h3.1l3-7h10.5L432.8,173.6L432.8,173.6z M420.4,164.1l4.2-9.9l4.2,9.9
			H420.4z"/>
		<path class="st6" d="M253,161.8c0,1.3-1.1,2.3-2.4,2.3s-2.3-1.1-2.3-2.4s1.1-2.3,2.3-2.3S253,160.5,253,161.8L253,161.8z"/>
		<path class="st6" d="M289.1,161.8c0,1.3-1.1,2.3-2.4,2.3s-2.4-1.1-2.4-2.4c0-1.3,1.1-2.3,2.4-2.3
			C288.1,159.4,289.1,160.5,289.1,161.8L289.1,161.8z"/>
		<path class="st6" d="M335.4,161.6c0,1.3-1.1,2.3-2.4,2.3s-2.4-1.1-2.4-2.4c0-1.3,1.1-2.3,2.4-2.3
			C334.4,159.3,335.4,160.3,335.4,161.6L335.4,161.6z"/>
		<path class="st6" d="M375.1,161.7c0,1.3-1.1,2.3-2.4,2.3s-2.4-1.1-2.4-2.4c0-1.3,1.1-2.3,2.4-2.3
			C374.1,159.4,375.1,160.4,375.1,161.7L375.1,161.7z"/>
		<path class="st6" d="M406.6,161.7c0,1.3-1.1,2.3-2.4,2.3s-2.4-1.1-2.4-2.4c0-1.3,1.1-2.3,2.4-2.3
			C405.5,159.4,406.6,160.4,406.6,161.7z"/>
		<path class="st6" d="M187.4,153.6l-5.9-5.8h-3.3l-5.9,5.8c-1,1.1-1.5,2.5-1.4,4v15.7h3.2v-8.4h11.8v8.4h3.1v-15.7
			C189,156.1,188.4,154.6,187.4,153.6L187.4,153.6z M185.7,162H174v-4.2c-0.1-0.8,0.2-1.6,0.7-2.2l5-5.1h0.4l4.9,5.1
			c0.5,0.6,0.8,1.4,0.7,2.2L185.7,162L185.7,162z"/>
		<path class="st6" d="M477.1,166.4H474v1.5c0,0.6-0.2,1.2-0.7,1.6c-0.4,0.5-0.9,0.7-1.5,0.7h-7.2c-0.6,0-1.1-0.3-1.5-0.7
			c-0.4-0.4-0.7-1-0.7-1.6v-14.7c0-0.6,0.2-1.2,0.7-1.6c0.4-0.5,0.9-0.7,1.5-0.7h7.2c0.6,0,1.1,0.3,1.5,0.7c0.4,0.4,0.7,1,0.7,1.6
			v1.4h3.2v-1c0-1.5-0.5-3-1.6-4.2c-1-1.1-2.4-1.7-3.9-1.7h-6.8c-3-0.1-5.5,2.2-5.6,5.2c0,0.1,0,0.2,0,0.4v14.3
			c-0.1,3,2.2,5.5,5.2,5.6c0.1,0,0.2,0,0.4,0h6.8c3,0.1,5.5-2.2,5.6-5.2c0-0.1,0-0.2,0-0.3L477.1,166.4L477.1,166.4z M628,147.8v7.5
			c-0.1,1.1-0.6,2.1-1.4,2.9l-5.8,6v9.1h-3.2v-9.1l-5.8-6c-1-1-1.5-2.4-1.5-3.9v-6.5h3.1v6.3c-0.1,0.8,0.2,1.5,0.7,2.1l4.7,5h0.6
			l4.7-5.1c0.5-0.6,0.8-1.3,0.7-2.1v-6.3L628,147.8z M503,153.3c0.1-3-2.2-5.5-5.2-5.6c-0.1,0-0.2,0-0.3,0h-7.6
			c-3-0.1-5.5,2.2-5.6,5.2c0,0.1,0,0.2,0,0.4v14.3c-0.1,3,2.2,5.5,5.2,5.6c0.1,0,0.2,0,0.4,0h7.6c3,0.1,5.5-2.2,5.6-5.2
			c0-0.1,0-0.2,0-0.3V153.3L503,153.3z M499.3,169.5c-0.4,0.5-1,0.7-1.5,0.7h-8.3c-0.6,0-1.2-0.3-1.5-0.7c-0.4-0.4-0.7-1-0.6-1.6
			v-14.8c0-0.6,0.2-1.2,0.6-1.6c0.4-0.4,0.9-0.7,1.5-0.7h8.3c0.6,0,1.2,0.3,1.5,0.7c0.4,0.4,0.6,1,0.6,1.6v14.8
			C499.9,168.5,499.7,169.1,499.3,169.5L499.3,169.5z M529.7,147.8H527l-7,8.6h-0.4l-7-8.6H510v25.5h3.2v-20.1l5.6,6.7h2.1l5.6-6.7
			v20.1h3.2L529.7,147.8L529.7,147.8z M553.9,153.3c0.1-3-2.2-5.5-5.2-5.6c-0.1,0-0.2,0-0.3,0h-11.7v25.5h3.1V162h8.6
			c3,0.1,5.5-2.2,5.6-5.2c0-0.1,0-0.2,0-0.4L553.9,153.3L553.9,153.3z M550.2,158.3c-0.4,0.5-1,0.7-1.6,0.7h-8.9v-8.4h8.9
			c0.6,0,1.2,0.2,1.6,0.7c0.4,0.4,0.6,1,0.6,1.6v3.8C550.9,157.3,550.6,157.9,550.2,158.3L550.2,158.3z M577,153.6l-5.9-5.8h-3.3
			l-5.9,5.8c-1,1.1-1.5,2.5-1.5,4v15.7h3.1v-8.4h11.8v8.4h3.1v-15.7C578.5,156.1,578,154.6,577,153.6L577,153.6z M575.3,162h-11.8
			v-4.2c-0.1-0.8,0.2-1.6,0.7-2.2l5-5.1h0.4l4.9,5.1c0.5,0.6,0.8,1.4,0.7,2.2L575.3,162L575.3,162z M603.3,147.8h-3.2v13.1
			l-11.9-13.1h-2.8v25.5h3.2v-20.3l11.5,12.6v7.7h3.2L603.3,147.8L603.3,147.8z"/>
	</g>
</g>
</svg>
